<?xml version="1.0" encoding="UTF-8"?>
<!DOCTYPE svg PUBLIC "-//W3C//DTD SVG 1.1//EN" "http://www.w3.org/Graphics/SVG/1.1/DTD/svg11.dtd">
<!-- Creator: CorelDRAW 2020 (64 Bit) -->
<svg xmlns="http://www.w3.org/2000/svg" xml:space="preserve" width="60.7366mm" height="60.3534mm" version="1.1" style="shape-rendering:geometricPrecision; text-rendering:geometricPrecision; image-rendering:optimizeQuality; fill-rule:evenodd; clip-rule:evenodd"
viewBox="0 0 778.02 773.11"
 xmlns:xlink="http://www.w3.org/1999/xlink"
 xmlns:xodm="http://www.corel.com/coreldraw/odm/2003">
 <defs>
  <style type="text/css">
   <![CDATA[
    .str0 {stroke:#373435;stroke-width:2.56;stroke-miterlimit:22.9256}
    .fil1 {fill:#FEFEFE}
    .fil20 {fill:#290816}
    .fil7 {fill:#330509}
    .fil8 {fill:#360814}
    .fil9 {fill:#380807}
    .fil13 {fill:#3A0105}
    .fil16 {fill:#410A0D}
    .fil14 {fill:#481515}
    .fil39 {fill:#4C4C4C}
    .fil25 {fill:#540607}
    .fil41 {fill:#562027}
    .fil21 {fill:#580A14}
    .fil19 {fill:#5C1413}
    .fil17 {fill:#670C17}
    .fil24 {fill:#6C070A}
    .fil26 {fill:#6F2A34}
    .fil22 {fill:#79131A}
    .fil28 {fill:#7A0A17}
    .fil5 {fill:#881825}
    .fil37 {fill:#8A0B1A}
    .fil40 {fill:#8C8C8C}
    .fil30 {fill:#8E1018}
    .fil33 {fill:#931329}
    .fil35 {fill:#943548}
    .fil32 {fill:#95252F}
    .fil4 {fill:#971927}
    .fil43 {fill:#9B9B9B}
    .fil29 {fill:#A81726}
    .fil18 {fill:#AA2730}
    .fil27 {fill:#AC0B18}
    .fil42 {fill:#AD2535}
    .fil12 {fill:#B32E45}
    .fil23 {fill:#B82637}
    .fil34 {fill:#B91B2A}
    .fil36 {fill:#C21E34}
    .fil31 {fill:#C72538}
    .fil10 {fill:#CF1B36}
    .fil11 {fill:#D12832}
    .fil15 {fill:#D9253A}
    .fil6 {fill:#E62636}
    .fil38 {fill:#F3F3F3}
    .fil3 {fill:#FA1A31}
    .fil2 {fill:#FD1A30}
    .fil0 {fill:black}
   ]]>
  </style>
 </defs>
 <g id="Camada_x0020_1">
  <metadata id="CorelCorpID_0Corel-Layer"/>
  <ellipse class="fil0 str0" cx="389.01" cy="386.55" rx="387.73" ry="385.27"/>
  <ellipse class="fil1 str0" cx="389.01" cy="386.55" rx="374.16" ry="371.8"/>
  <ellipse class="fil0" cx="389.01" cy="386.55" rx="362.66" ry="360.36"/>
  <g id="_2153494356352">
   <g id="_2153682682048">
    <path class="fil2" d="M457.18 126.79c-2.03,1.04 -1.86,0.87 -2.98,3.1l-2.19 2.23c-1.04,1.66 -0.54,1.16 -1.95,2.49 -2.11,1.99 -0.87,0.74 -2.48,1.78 -2.4,4.35 -7.66,8.74 -10.68,12.91l-0.08 2.19 -1.99 0.17c-3.64,2.9 -9.35,10.56 -13.62,15.23 -2.53,2.73 -4.35,4.76 -6.83,7.78 -2.03,2.49 -4.43,4.76 -6.54,7.53l-0.79 1.57c0,1.53 0.29,0.95 -1.62,0.99l-6.99 9.15c-0.25,2.9 -1.08,3.77 -2.07,5.63l-3.23 0.62c-2.53,0.58 -8.2,8.15 -8.86,9.69l-0.21 2.19c-1.74,2.57 -2.53,3.31 -5.55,4.55 -1.82,0.45 -1.66,1.08 -3.23,2.94 -1.32,1.57 -2.07,2.36 -3.43,3.93 -2.69,3.1 -4.64,5.26 -6.79,7.82 -3.43,4.02 -10.35,11.05 -12.83,14.9 -0.25,2.61 -0.37,2.07 -2.44,3.27l0.21 0.12c-1.12,2.73 -0.45,2.24 -3.06,2.9l-1.74 1.82 -2.11 2.36 -7.95 9.23c-0.74,1.28 0.12,0.62 -1.2,1.82 -1.61,1.45 0.25,0 -2.07,1.32 -3.73,4.64 -7.45,8.57 -11.92,13.41l-0.95 2.57c0.79,0.58 0.91,1.28 1.49,2.11 2.86,0.5 69.87,29.39 71.32,30.63 1.53,0.99 1.66,-1.37 0.87,2.28 0,0.04 -1.16,1.95 -1.33,2.28 -1.86,3.23 -0.66,2.57 -3.52,4.55l-7 14.53 -0.58 2.36c-0.37,2.03 -0.08,-0.12 -1.66,0.87 -2.4,5.8 -6.21,11.63 -9.02,17.1 -1.53,2.98 -7.82,13.95 -8.24,16.47 -0.45,0.83 -0.99,2.03 -1.49,2.9 -0.33,0.54 -0.41,0.74 -0.74,1.24 -1.2,1.53 -0.33,0.5 -1.7,1.61l-2.98 6.83 -2.44 5.38c-0.17,0.21 -0.37,0.41 -0.54,0.58l-1.32 1.12c-1.16,2.65 -5.26,8.82 -5.38,11.18 -0.54,1.12 -0.74,1.86 -1.49,2.98 -1.99,2.98 -0.74,1.24 -2.65,2.61 -0.83,4.22 -6.95,13.99 -9.31,18.38 -1.66,3.06 -8.4,14.73 -9.15,17.59 0.83,1.24 -0.66,1.49 1.66,0.58 3.39,-2.03 7.25,-9.19 11.26,-11.88 1.53,-3.27 -0.21,-1.94 3.48,-3.73 0.41,-1.57 0.58,-1.32 1.37,-2.48 1.2,-3.27 -0.62,-1.04 2.32,-2.9 3.23,-2.57 5.21,-5.71 7.25,-7.74 1.16,-3.02 0.33,-1.57 2.32,-2.44l-0.12 -0.58 2.61 -2.65c1.82,-1.7 3.6,-3.97 5.26,-5.8l5.5 -5.92c0.79,-1.45 -0.04,-1.08 1.82,-2.53l0.29 -2.03 1.53 -0.5 2.11 -2.19 7.49 -7.82 0.45 -1.66 0.25 -2.57 2.57 -0.58c1.7,-1.32 0.7,-0.5 2.69,-1.57 0.58,-2.48 12.05,-14.57 14.9,-18.01 1.86,-2.23 2.94,-4.1 5.05,-5.3 1.04,-2.48 0.5,-2.53 3.6,-4.26l8.98 -11.42c0.66,-1.86 1.37,-3.89 2.57,-5.38 0.54,-0.66 0.95,-1.04 1.82,-1.7l3.52 -1.82c3.97,-2.53 6.13,-7.91 9.73,-10.02 1.37,-3.06 -0.45,-1.99 3.23,-3.23l-0.29 -0.12c1.24,-2.61 0.04,-1.45 2.61,-3.27l1.99 -2.94 2.61 -2.86 4.8 -5.63 0.91 -2.32 1.82 -0.33 0 -0.62c0,-1.99 -0.58,-1.66 1.08,-1.66 1.37,-2.36 -0.08,-0.25 1.82,-0.83 0.74,-2.65 -1.16,0.12 1.08,-2.61 1.74,-2.11 0.74,-0.74 2.36,-1.74 2.48,-2.36 9.48,-8.61 9.81,-12.67l-33.82 -14.49 -2.69 -0.17 -0.74 -1.57 -34.85 -14.53 -2.4 -0.58 1.12 -3.6c0.79,-1.16 0.74,-0.87 1.41,-1.49 0.25,-2.86 0.21,-1.78 1.7,-4.55 1.57,-2.94 1.08,-2.65 3.56,-4.64 0.12,-2.36 3.6,-7.95 4.84,-10.02l0.37 -1.9 1.45 -0.66c1.45,-6.08 9.6,-16.31 10.1,-20.9 0.91,-2.07 0.21,-0.79 1.41,-2.36 0.12,-0.17 0.54,-0.17 0.66,-0.58 0.12,-0.41 0.5,-0.33 0.7,-0.5l0.91 -2.23 0.74 -2.15 0 -2.36 1.74 -0.45 1.57 -2.07c2.81,-6.91 8.65,-16.85 12.75,-24.34 2.07,-3.73 4.47,-7.82 6.5,-11.71 1.7,-3.27 4.51,-9.23 6.25,-11.42 0.83,-3.11 0.74,-2.28 2.11,-4.84 0.5,-0.95 0.79,-1.74 1.24,-2.36 1.2,-1.66 0.12,-0.33 1.74,-1.57l3.19 -8.44 -0.41 -2.65c-1.16,2.19 0.66,0.12 -2.23,0.87l0.04 0.15z"/>
    <path class="fil2" d="M232.66 380.58c2.49,1.49 0.95,-0.5 2.61,3.11 1.49,6.79 19.7,14.28 27.53,7.37l4.64 -3.77 1.28 0.33c1.04,-2.9 -0.62,-1.2 2.19,-2.65 1.7,-6.87 3.72,-6.83 3.77,-16.81 0,-6.7 -0.04,-13.41 -0.04,-20.12 0,-13.45 -0.25,-27.28 0.04,-40.57l1.24 -2.69 1.49 2.44 62.13 -0.7 -36.59 -15.44 -3.02 -1.66 2.07 -2.23 1.57 -1.7c1.08,-1.9 -1.53,-1.53 1.2,-1.78l1.2 0.08c0.87,-3.56 1.28,-3.48 4.31,-5.01l7.7 -10.02c1.2,-3.23 -0.95,-1.04 2.4,-2.53 0.21,-2.73 0.37,-0.91 -0.95,-2.44l-44.42 0.08c-3.56,-23.43 5.63,-71.32 -6.66,-79.52 -2.48,-1.37 -1.86,-0.74 -3.23,-3.23l-7.2 -3.97c-11.55,2.69 -13.33,-1.61 -21.32,7.82 -5.88,6.95 -5.55,12.09 -5.55,23.47l0 146.04c0,18.17 -0.54,10.1 1.66,26.16l-0.04 -0.08z"/>
    <path class="fil2" d="M518.78 182.84l-1.7 3.31 -2.28 3.06 -2.07 5.63c0.21,10.8 1.7,66.15 -1.74,71.32l-53.85 -1.57c-3.77,-0.08 -5.5,-0.83 -5.59,2.15 5.34,1.24 9.89,4.22 15.11,6.21 5.26,2.03 10.27,3.85 14.32,6.09l4.35 0.99c2.36,0.74 0.7,-0.79 2.4,1.37l-0.66 1.53c-1.95,3.68 -3.06,5.13 -6.42,6.09 -1.2,0.7 -13.74,13.45 -14.74,18.26 8.03,-0.25 40.28,-1.37 45.2,0.41 1.78,1.49 1.04,17.26 1.04,20.28 0,14.28 -2.32,51.74 4.84,57.66 2.9,0.7 1.45,-0.37 3.85,2.03 2.36,2.32 1.41,2.69 1.37,2.94 3.77,1.53 1.82,1.66 6.75,2.57 2.44,0.45 5.5,0.62 8.4,0.25 5.3,-0.7 9.64,-4.93 12.01,-5.17 0.95,-1.86 0.95,-2.07 1.94,-3.6 0.12,-0.21 0.99,-1.49 1.12,-1.61 1.28,-1.28 0.12,-0.25 1.86,-1.28 -0.12,-3.89 1.37,-6.17 1.49,-10.8 0.08,-3.89 -0.04,-7.99 -0.04,-11.88l0 -146.95c-0.04,-17.55 0.17,-7.91 -1.61,-21.9l-1.57 -0.7 -0.29 -1.9 -2.49 -3.44c-2.94,-1.41 -2.23,-0.7 -3.23,-3.31l-0.66 0.33 -2.03 -0.83c-1.74,0 -1.24,0.41 -1.24,-1.45 -4.97,-1.45 -8.28,-0.74 -13.04,-1.78l-10.76 5.71 -0.05 -0z"/>
    <path class="fil2" d="M189.03 222.54l-0.45 1.99 -2.9 0.29c-10.68,7.04 -8.61,22.02 -8.61,35.64 0,14.9 0,29.8 0,44.71 0,16.1 -4.6,44.46 21.94,45.49 7.82,0.29 11.88,-4.64 15.15,-5.88 0.91,-1.82 -0.29,-0.79 1.86,-2.86l0.62 -2.32c0.33,-1.86 0.08,0.08 1.7,-0.83 2.57,-10.06 2.36,-13.66 2.36,-25.37 0,-9.44 0,-18.88 0,-28.27 0,-15.57 2.36,-40.11 -2.4,-52.61 -2.44,-1.04 -2.48,0 -2.94,-3.73l0.62 -0.41c-3.11,-1.62 -2.11,-0.41 -3.64,-3.68 -2.94,-0.74 -6.25,-3.39 -10.85,-4.02 -4.22,-0.54 -8.82,0.87 -12.42,1.9l-0.04 -0.04z"/>
    <path class="fil2" d="M575.57 224.82c-12.83,4.8 -9.15,36.06 -9.15,50.21 0,19.58 -0.29,39.28 0.25,58.74 0.91,1.04 0.5,0.21 1.37,2.11 0.7,1.53 -0.21,-3.43 0.33,2.07l0.29 1.04c3.02,1.7 1.08,-0.91 2.07,2.94 2.23,2.4 7.08,6.95 11.92,8.28 5.22,1.41 12.83,0.21 16.06,-2.9l4.55 -3.85c9.69,-2.69 6.46,-46.03 6.46,-58.41 0,-10.97 0,-21.9 0,-32.87 0,-4.76 0.87,-22.06 -6.46,-24.63 -2.69,-1.7 -1.04,0.25 -2.36,-2.65 -1.99,-0.83 -1.61,-0.83 -3.19,-1.78l-3.6 -2.32c-3.11,0.21 -7.45,-1.04 -10.56,0.25 -1.16,1.2 -0.17,0.58 -1.9,1.62 -0.54,0.33 -1.32,0.5 -1.86,0.74 -1.74,0.7 -1.94,1 -4.18,1.41l-0.04 0z"/>
    <path class="fil3" d="M631.16 304.54c0.17,-0.25 0.33,-0.91 0.45,-0.74 0.12,0.17 0.37,-0.54 0.54,-0.66 1.28,-1.08 0.25,-0.45 2.19,-1.41 7.49,-4.02 7.62,-13.62 7.25,-22.81 -1.53,-1.04 -1.24,1.2 -1.53,-0.91l-0.58 -2.32c-0.87,-2.48 -1.7,-3.64 -3.39,-4.59 -2.82,-1.53 -1.08,0.45 -2.15,-2.65 -2.69,-1.53 -7.53,-5.76 -13.04,-3.06 -1.62,5.34 -1.12,34.36 -0.29,41.52 4.68,0.21 7.66,-1.12 10.6,-2.4l-0.04 0.04z"/>
    <path class="fil3" d="M147.8 297.92c2.69,1.49 2.15,0.74 4.18,3.68 1.61,1.53 4.14,3.52 7.12,4.31 0.79,0.04 3.6,0.33 4.26,0.29 1.61,-0.08 1.78,-0.41 2.57,-0.66l-0.37 -40.57 -6.13 0.37c-5.63,0.66 -10.72,6.42 -13.2,11.71 -1.49,3.19 -1.78,7.49 -1.33,11.71 0.54,5.05 2.15,4.93 2.9,9.15l-0.01 0z"/>
    <path class="fil4" d="M451.59 266.75c0.08,-2.98 1.78,-2.23 5.59,-2.15l53.85 1.57c3.44,-5.17 1.94,-60.52 1.74,-71.32 -3.39,6.75 0.79,57.17 -1.37,67.39l-3.93 1.12c-12.46,0.95 -49.01,-1.45 -60.85,0.17 0.62,2.15 -1.57,0.25 1.82,2.19 1.7,0.95 0.37,0.33 3.15,1.04l0 -0z"/>
    <path class="fil5" d="M159.43 265.34l6.13 -0.37 0.37 40.57c-0.79,0.25 -0.91,0.58 -2.57,0.66 -0.66,0.04 -3.48,-0.25 -4.26,-0.29 1.12,0.87 -0.41,0.87 3.23,1.74 2.03,0.45 2.15,0.04 3.72,-0.12 0.79,-1.37 0.74,0.08 1.24,-3.27 0.08,-0.58 0,-2.94 -0.04,-3.68l-0.12 -20.08c0,-3.35 0.5,-11.09 0.21,-13.78 -0.58,-5.09 -6.33,-4.1 -7.91,-1.37l0 0z"/>
    <path class="fil6" d="M457.18 126.79c2.9,-0.74 1.08,1.32 2.23,-0.87l0.41 2.65c3.02,-2.53 1.78,-3.23 4.31,-5.46l-0.12 -2.98 -2.32 0.95c-2.36,1.74 -3.27,2.49 -4.51,5.67l0 0.04z"/>
    <path class="fil7" d="M518.78 182.84l10.76 -5.71c-3.77,-0.5 -4.76,0.29 -8.74,0.95l-2.03 4.76z"/>
    <path class="fil8" d="M265.11 181.1l2.73 0.95c-1.37,-4.64 -4.76,-5.75 -9.93,-4.93l7.2 3.97 -0 -0z"/>
    <path class="fil9" d="M600.9 224.94c1.2,0.58 1.61,0.54 2.77,1.04l-0.7 -2.77c-2.23,-1.45 -5.13,-3.06 -8.82,-2.4l3.6 2.32c1.53,0.99 1.2,0.95 3.19,1.78l-0.04 0.04z"/>
    <path class="fil10" d="M483.05 284.67c-0.91,2.28 -1.04,1.37 -2.32,4.35 3.35,-0.95 4.47,-2.4 6.42,-6.09l0.66 -1.53c-1.7,-2.11 -0.08,-0.58 -2.4,-1.37l0.33 3.27 -2.65 1.37 -0.04 0z"/>
    <path class="fil11" d="M416.74 344.73c2.03,-1.16 0.37,0.12 2.49,-1.74 0.12,-0.08 0.79,-0.95 1.08,-1.28l2.03 -2.44c1.32,-1.08 1.49,-1.28 2.28,-3.39l-3.52 1.82c-0.91,0.66 -1.32,1.04 -1.82,1.7 -1.2,1.45 -1.9,3.52 -2.57,5.38l0.04 -0.04z"/>
    <path class="fil9" d="M451.55 145.79c2.53,-1.2 2.03,-0.7 3.56,-3.27 1.66,-2.77 1.32,-2.61 1.53,-5.5 -1.57,1.24 -0.54,-0.08 -1.74,1.57 -0.45,0.62 -0.74,1.41 -1.24,2.36 -1.37,2.61 -1.28,1.78 -2.11,4.84z"/>
    <path class="fil12" d="M461.74 121.12l2.32 -0.95 0.12 2.98 2.36 -4.72c0.54,-2.9 1.49,-3.19 -0.74,-3.19 -0.58,1.16 -0.45,0.91 -1.62,2.36 -1.61,1.99 -1.24,1.28 -2.44,3.52l0 0z"/>
    <path class="fil7" d="M424.44 195.34l-1.74 2.77 -0.74 2.15c3.93,1.32 4.06,-1.37 4.1,-7l-1.57 2.07 -0.04 0z"/>
    <path class="fil13" d="M381.47 385.22c-1.49,3.19 0.08,1.45 -2.82,3.15l-0.45 1.66c4.43,-0.62 4.47,-1.49 5.96,-6.38 -1.99,1.04 -0.99,0.25 -2.69,1.57z"/>
    <path class="fil14" d="M465.79 115.24c2.24,0 1.28,0.25 0.74,3.19 1.24,-0.79 1.9,-0.12 2.65,-2.57 1.41,-4.51 -1.2,-3.02 -2.19,-3.39 -1.24,1.7 -0.12,-0.45 -1.2,2.82l0 -0.04z"/>
    <path class="fil15" d="M396.12 195.34c-1.16,3.56 -0.08,1.74 -2.82,3.19l-0.12 1.61 3.23 -0.62c0.99,-1.86 1.82,-2.73 2.07,-5.63 -1.95,0.95 -0.5,-0.37 -2.36,1.41l0 0.04z"/>
    <path class="fil15" d="M378.57 216.62c2.98,-1.24 3.77,-1.99 5.55,-4.55l0.21 -2.19c-2.19,1.24 -1.74,1.08 -3.23,2.73 -2.57,2.82 -0.99,0.29 -2.53,4.02l0 -0z"/>
    <path class="fil7" d="M344.51 253.25c1.66,-1.12 0.74,-0.45 2.44,-0.74 0.74,-1.45 -0.21,-0.7 1.08,-1.82 1.33,-1.16 0,-0.33 1.99,-1.08l-0.21 -0.12 0.21 -1.74c-3.73,0.74 -4.88,2.07 -5.5,5.5l-0 0z"/>
    <path class="fil16" d="M483.05 284.67l2.65 -1.37 -0.33 -3.27 -4.35 -0.99c1.2,2.44 -2.53,1.86 3.27,2.53l-1.24 3.11z"/>
    <path class="fil17" d="M387.85 326.89c2.86,-2.03 1.66,-1.32 3.52,-4.55 0.17,-0.29 1.32,-2.24 1.32,-2.28 0.79,-3.64 0.66,-1.24 -0.87,-2.28 -0.83,4.8 -2.4,3.23 -4.02,9.11l0.04 -0z"/>
    <path class="fil18" d="M575.57 224.82c2.24,-0.41 2.44,-0.7 4.18,-1.41 0.58,-0.25 1.32,-0.41 1.86,-0.74 1.78,-1.08 0.74,-0.41 1.9,-1.61 -1.95,0.21 -3.52,0.41 -4.93,1.04 -2.77,1.28 -1.99,1.24 -3.06,2.69l0.04 0.04z"/>
    <path class="fil9" d="M404.15 360.38l3.64 0.12 -0.04 -4.39c-3.15,1.74 -2.57,1.78 -3.6,4.26z"/>
    <path class="fil13" d="M366.82 402.56c-1.86,1.45 -1.04,1.08 -1.82,2.53l2.98 -0.25 1.9 -4.8 -1.24 0.04 -1.82 2.53 0 -0.04z"/>
    <path class="fil16" d="M305.97 283.76l2.9 -0.91 1.41 -4.14c-3.02,1.57 -3.39,1.45 -4.31,5.01l0 0.04z"/>
    <path class="fil16" d="M549.37 388.2c3.48,-1.28 3.73,-3.27 4.93,-6.5 -1.74,1.04 -0.58,0 -1.86,1.28 -0.12,0.12 -0.99,1.41 -1.12,1.61 -0.99,1.57 -0.99,1.74 -1.95,3.6z"/>
    <path class="fil8" d="M471.92 291.46c-0.17,-0.12 -1.37,-3.89 -3.77,0.91 0.25,0.17 -1.41,1.74 2.4,0.7 2.49,-0.66 0.5,-0.17 1.37,-1.61l-0 0z"/>
    <path class="fil19" d="M396.08 254.25l0.17 -5.67c-0.66,0.62 -0.66,0.33 -1.41,1.49l-1.12 3.6 2.4 0.58 -0.04 0z"/>
    <path class="fil20" d="M458.26 116.77c2.36,-1.04 3.93,-0.66 2.61,-3.97 -2.9,1.45 -2.03,0.25 -2.61,3.97z"/>
    <path class="fil21" d="M447.62 136.4c1.61,-1.04 0.33,0.21 2.49,-1.78 1.41,-1.32 0.91,-0.83 1.94,-2.49 -3.27,0.37 -3.56,0.74 -4.43,4.26z"/>
    <path class="fil22" d="M396.21 248.58l5.21 -9.19c-2.48,1.99 -1.94,1.7 -3.56,4.64 -1.49,2.77 -1.45,1.7 -1.7,4.55l0.04 0z"/>
    <path class="fil4" d="M350.09 397.88l1.32 -1.12c0.17,-0.17 0.37,-0.37 0.54,-0.58l2.44 -5.38c-0.91,0.74 -0.79,0.41 -1.7,1.53 -0.87,1.04 -0.08,-0.12 -1.04,1.7 -0.83,1.57 -0.95,2.07 -1.57,3.85z"/>
    <path class="fil23" d="M522.25 390.56c0.04,-0.25 1,-0.62 -1.37,-2.94 -2.44,-2.4 -0.95,-1.32 -3.85,-2.03l5.21 4.97z"/>
    <path class="fil7" d="M214.16 344.78l3.15 -0.87 0.54 -2.53 -1.86 0.54c-2.15,2.07 -0.95,1.04 -1.86,2.86l0.04 0z"/>
    <path class="fil5" d="M320.5 287.15c-0.58,-0.83 -0.66,-1.53 -1.49,-2.11l0.95 -2.57c-3.15,2.03 -1.95,0.25 -2.32,3.81l2.82 0.87 0.04 0z"/>
    <path class="fil5" d="M357.42 383.98c1.37,-1.12 0.5,-0.08 1.7,-1.61 0.37,-0.45 0.45,-0.7 0.74,-1.24 0.5,-0.83 1.04,-2.03 1.49,-2.9 -2.03,1.32 -0.58,-1.04 -2.77,2.69 -0.62,0.99 -0.74,1.86 -1.16,3.06l0 0z"/>
    <path class="fil5" d="M340.62 414.65c1.9,-1.37 0.7,0.37 2.65,-2.61 0.74,-1.12 0.95,-1.86 1.49,-2.98 -1.9,1.53 -1.12,0.41 -2.73,2.82 -0.79,1.16 -0.87,1.61 -1.41,2.77z"/>
    <path class="fil4" d="M454.91 302.02c2.53,-1.62 2.32,-1.45 3.44,-4.35 -1.61,0.99 -0.62,-0.37 -2.36,1.74 -2.23,2.73 -0.29,-0.04 -1.08,2.61z"/>
    <path class="fil24" d="M215.93 228.33c-0.95,-2.15 -0.99,-3.19 -3.64,-3.68 1.53,3.27 0.58,2.07 3.64,3.68z"/>
    <path class="fil24" d="M393.31 198.57c2.73,-1.49 1.66,0.37 2.81,-3.19l-2.57 0.74 -0.25 2.49 0 -0.04z"/>
    <path class="fil22" d="M151.98 301.6c-1.99,-2.94 -1.49,-2.19 -4.18,-3.68 1.74,3.48 1.2,2.77 4.18,3.68z"/>
    <path class="fil25" d="M434.37 325.82c2.82,-0.87 1.94,-0.45 3.23,-3.23 -3.68,1.24 -1.86,0.17 -3.23,3.23z"/>
    <polygon class="fil26" points="185.68,224.77 188.57,224.53 189.03,222.54 186.25,223.2 "/>
    <path class="fil12" d="M378.66 388.4c2.94,-1.74 1.32,0 2.82,-3.14l-2.57 0.58 -0.25 2.57z"/>
    <path class="fil5" d="M452.01 304.5c2.53,-0.58 2.28,0.04 2.94,-2.44 -1.9,0.54 -0.5,-1.53 -1.82,0.83 -1.66,0 -1.08,-0.33 -1.08,1.66l-0.04 -0.04z"/>
    <path class="fil22" d="M549.7 184.12c-0.99,-2.53 0.17,-2.03 -3.23,-3.31 0.95,2.61 0.25,1.86 3.23,3.31z"/>
    <path class="fil5" d="M331.92 269.07c2.32,-1.33 0.45,0.12 2.07,-1.33 1.32,-1.2 0.45,-0.54 1.2,-1.82 -2.36,0.7 -2.61,0.04 -3.27,3.19l0 -0.04z"/>
    <path class="fil27" d="M216.02 341.92l1.86 -0.54 0.45 -2.61c-1.62,0.91 -1.37,-1.08 -1.7,0.83l-0.62 2.32z"/>
    <path class="fil28" d="M302.9 291.05c-0.91,-1.82 -0.7,-1.28 -0.95,-3.89l-2.07 2.23 3.02 1.66z"/>
    <path class="fil29" d="M268.34 184.33c-0.74,-1.94 -0.29,-1.08 -0.5,-2.28l-2.73 -0.95c1.37,2.53 0.74,1.86 3.23,3.23z"/>
    <path class="fil30" d="M570.73 341.96c-0.99,-3.85 0.91,-1.28 -2.07,-2.94l0.08 2.44 2.03 0.5 -0.04 0z"/>
    <path class="fil30" d="M378.62 344.69c1.57,-0.99 1.28,1.16 1.66,-0.87l0.58 -2.36c-2.32,1.08 -1.57,0.41 -2.23,3.27l0 -0.04z"/>
    <path class="fil18" d="M262.79 391.05c3.06,-0.91 0.95,0.54 3.31,-1.45 1.62,-1.37 0.17,-0.04 1.33,-2.32l-4.64 3.77z"/>
    <path class="fil31" d="M346.95 252.47c2.61,-0.62 1.99,-0.17 3.06,-2.9 -2.03,0.74 -0.66,-0.04 -1.99,1.08 -1.28,1.08 -0.33,0.33 -1.08,1.82z"/>
    <path class="fil32" d="M545.85 181.19c-1.37,-2.11 0.33,-1.7 -3.27,-2.28 0,1.86 -0.5,1.45 1.24,1.45l2.03 0.83 0 -0z"/>
    <path class="fil33" d="M418.23 205.94c2.07,-1.12 1.74,1.2 2.03,-0.99l0.74 -2.44c-0.25,0.17 -0.62,0.08 -0.7,0.5 -0.12,0.41 -0.54,0.41 -0.66,0.58 -1.2,1.57 -0.45,0.29 -1.41,2.36l0 0z"/>
    <path class="fil34" d="M349.97 247.75l-0.21 1.74c2.07,-1.2 2.23,-0.7 2.44,-3.27l-2.28 1.57 0.04 -0.04z"/>
    <path class="fil22" d="M434.33 270.56c-2.03,-2.53 0,-1.24 -3.44,-1.78l0.74 1.57 2.69 0.17 0 0.04z"/>
    <path class="fil27" d="M317.97 268.73l2.03 -0.45 0.33 -2.07c-3.31,1.49 -1.16,-0.7 -2.4,2.53l0.04 -0z"/>
    <path class="fil18" d="M598.71 347.34c3.6,-1.16 2.94,-0.74 4.55,-3.85l-4.55 3.85z"/>
    <path class="fil5" d="M568.37 337.99c-0.54,-5.5 0.37,-0.54 -0.33,-2.07 -0.87,-1.9 -0.45,-1.08 -1.37,-2.11 0.21,2.61 -0.41,2.61 1.7,4.18l0 -0z"/>
    <path class="fil17" d="M437.27 322.46l2.28 -1.16 0.33 -2.15c-2.57,1.82 -1.37,0.7 -2.61,3.27l0 0.04z"/>
    <polygon class="fil11" points="274.67,307.48 277.41,307.19 275.92,304.79 "/>
    <path class="fil16" d="M268.71 387.62l2.03 -0.5 0.17 -2.15c-2.82,1.45 -1.12,-0.25 -2.19,2.65l0 -0z"/>
    <path class="fil29" d="M603.26 227.55l0.41 -1.57c-1.16,-0.5 -1.57,-0.5 -2.77,-1.04 1.32,2.9 -0.33,0.95 2.36,2.65l0 -0.04z"/>
    <path class="fil22" d="M235.27 383.73c-1.66,-3.6 -0.12,-1.61 -2.61,-3.11l1 1.95c0,1.74 -0.37,1.2 1.61,1.2l0 -0.04z"/>
    <path class="fil35" d="M434.83 151.71l1.99 -0.17 0.08 -2.19c-2.94,1.49 -0.87,-0.87 -2.07,2.36z"/>
    <path class="fil29" d="M449.28 307.81c2.36,-1.24 1.37,0.04 2.73,-2.69l-1.82 0.33 -0.91 2.32 0 0.04z"/>
    <path class="fil36" d="M218.3 232.47l-2.94 -3.73c0.45,3.68 0.5,2.69 2.94,3.73z"/>
    <path class="fil5" d="M631.16 304.54l2.07 -1.2c1.7,0 1.12,0.37 1.16,-1.61 -1.94,0.95 -0.91,0.33 -2.19,1.41 -0.17,0.12 -0.41,0.83 -0.54,0.66 -0.12,-0.17 -0.29,0.5 -0.45,0.74l-0.04 0z"/>
    <path class="fil30" d="M641.64 278.92c-0.54,-1.9 -0.08,-0.79 -0.95,-2.23 -0.08,-0.17 -0.45,-0.17 -0.54,-0.54 -0.08,-0.37 -0.41,-0.33 -0.62,-0.45l0.58 2.32c0.29,2.11 0,-0.12 1.53,0.91l0 -0z"/>
    <path class="fil4" d="M636.09 271.09l-0.7 -1.66c0,-1.45 0.29,-0.91 -1.45,-0.99 1.08,3.06 -0.62,1.12 2.15,2.65z"/>
    <path class="fil29" d="M554.08 190.17c-0.95,-3.19 0.66,-0.95 -1.9,-2.61l0.29 1.9 1.57 0.7 0.04 0z"/>
    <path class="fil33" d="M441.87 316.26c2.03,-0.91 1.74,1.08 2.11,-0.91l0.5 -1.94 -2.61 2.86 0 0z"/>
    <path class="fil32" d="M514.8 189.21l2.28 -3.06c-2.03,0.04 -1.66,-0.54 -1.66,1.2l-0.62 1.86z"/>
    <polygon class="fil35" points="422.7,198.12 424.44,195.34 422.7,195.8 "/>
    <path class="fil5" d="M344.51 253.25l0.7 1.08 1.74 -1.82c-1.66,0.29 -0.79,-0.37 -2.44,0.74l0 0z"/>
    <path class="fil5" d="M343.1 256.65l2.11 -2.36c-1.57,0.45 -1.32,-1.41 -1.66,0.54l-0.45 1.82z"/>
    <path class="fil37" d="M303.53 285.46l2.4 -1.7 -1.2 -0.08c-2.73,0.25 -0.12,-0.12 -1.2,1.78z"/>
    <path class="fil5" d="M405.44 184.79c1.9,-0.04 1.61,0.54 1.61,-0.99l0.79 -1.57 -2.4 2.57 0 0z"/>
    <path class="fil28" d="M420.34 341.67c2.03,-0.66 1.66,0 2.03,-2.44l-2.03 2.44z"/>
    <polygon class="fil32" points="366.82,402.56 368.64,400.04 367.11,400.53 "/>
    <polygon class="fil4" points="368.64,400.04 369.88,400 370.75,397.88 "/>
    <path class="fil5" d="M452.01 132.13l2.19 -2.23c-2.28,0.95 -1.53,0.04 -2.19,2.23z"/>
    <polygon class="fil30" points="406.31,229.37 408.17,226.84 406.68,227.5 "/>
    <g>
     <path class="fil38" d="M324.22 511.43c-2.82,-29.06 2.48,-29.06 16.14,-29.06 22.89,0 35.31,-3.52 36.3,9.97 0.33,4.47 0.41,18.34 -0.45,22.11 -1.7,7.41 -7.41,6.91 -15.73,6.91 -23.22,0 -34.94,3.52 -36.22,-9.89l-0.04 -0.04zm-14.28 4.55c1.45,10.6 6.95,16.6 17.67,18.09 9.81,1.37 26.12,0.66 36.43,0.54 11.92,-0.17 21.48,-2.24 25.13,-11.71 2.36,-6.13 2.32,-27.82 1.53,-35.18 -2.44,-23.76 -29.93,-19 -54.97,-18.54 -12.75,0.21 -20.57,2.4 -24.3,12.5 -2.32,6.21 -2.53,27.19 -1.53,34.36l0.04 -0.04z"/>
     <path class="fil38" d="M616.51 482.16c1.9,0.25 1.28,-0.17 3.6,0.62 3.23,1.12 0.5,0.29 1.94,1.28 4.51,6.58 3.31,10.68 3.35,20.08 0,7.99 0.66,14.78 -6.58,16.64 -8.65,2.24 -34.98,0.95 -43.09,-1.24l-1.78 -2.9c-2.11,-9.02 -3.93,-30.63 4.68,-33.49 7.16,-2.36 28.73,0.25 37.83,-0.95l0.04 -0.04zm17.88 -6.91l-2.73 -1.9c-7.53,-6.5 -55.72,-5.96 -64.49,-0.7 -8.82,5.26 -8.65,15.44 -8.61,27.86 0,11.22 -0.29,23.51 6.5,29.06 7.33,5.96 20.74,5.09 31.79,5.09 9.98,0 24.71,1.45 33.03,-2.9 9.56,-5.01 9.89,-13.37 9.85,-26.66 -0.04,-10.47 1.08,-23.68 -5.34,-29.8l0 -0.04z"/>
     <path class="fil38" d="M329.07 613.14c2.77,0.62 5.8,0.7 8.69,0.62 4.43,-0.12 4.51,0.66 5.13,-2.9 0.87,-5.26 -1.53,-39.49 0.41,-48.93 5.63,1.57 34.03,45.12 40.77,50.01 3.27,2.36 16.19,2.73 20.33,0.87 5.3,-2.36 3.89,-12.54 3.89,-19.25 0,-7.99 0.95,-39.9 -0.74,-45.33l-12.79 0.21c-2.82,10.1 0.74,38.37 -0.91,51.2 -3.68,-0.17 -4.18,-2.57 -6.08,-5.13l-35.31 -45c-3.06,-1.9 -16.64,-2.32 -20.16,-0.54 -5.3,2.65 -3.68,13.41 -3.68,19 0,10.31 -1.28,36.68 0.45,45.12l0 0.04z"/>
     <path class="fil38" d="M430.48 574.64c-0.25,-16.18 7.04,-13.25 28.56,-13.25 7.04,0 14.07,0.08 21.07,0.08 3.97,0 5.46,0.41 5.92,-3.48 1.32,-11.14 -2.77,-9.89 -6.87,-9.93l-44.13 0.45c-18.38,2.4 -18.96,14.36 -18.96,32.29 0,18.22 0.29,29.93 18.67,32.5 8.32,1.16 42.31,1.24 51.04,0.12l-0.29 -12.42c-8.2,-1.41 -25.54,-0.45 -34.73,-0.45 -14.78,0 -20.12,1.78 -20.49,-14.28 9.98,0 47.77,1.28 54.77,-0.58 0.66,-13.33 0.79,-11.22 -9.64,-11.14l-45 0.08 0.08 -0z"/>
     <path class="fil38" d="M244.54 482.25c8.82,-0.54 18.5,-0.12 27.4,-0.17 10.1,-0.04 17.39,-1.82 17.3,10.18 -0.12,11.92 -6.54,10.35 -17.3,10.31 -9.19,-0.04 -18.46,0.08 -27.65,-0.04l0.29 -20.28 -0.04 0zm45.78 31.01c0.17,-0.17 0.41,-0.33 0.5,-0.37l7.62 -4.18c6.79,-6.13 5.92,-23.26 3.73,-29.31 -4.88,-13.45 -24.05,-10.31 -39.32,-10.31 -8.24,0 -16.43,0.08 -24.67,-0.04 -6.38,-0.08 -8.03,-1.2 -8.28,4.84l0.41 60.1c4.18,0.95 9.69,1.08 13.95,-0.12l0.04 -19.79 30.75 0.04c3.98,6.75 10.64,13.58 14.98,20.37l15.56 -0.25c-0.54,-4.35 -12.5,-17.8 -15.27,-20.99l0 0z"/>
     <path class="fil38" d="M586.04 573.48c-2.19,-1.9 -2.82,-5.38 -1.74,-8.86 1.16,-3.77 4.18,-3.27 7.95,-3.27 7,-0.04 14.03,0.04 21.03,0.04 25.33,0 25.17,2.82 24.84,-8.07 -0.17,-4.76 0.12,-5.21 -4.72,-5.21l-43.8 0c-14.12,0 -19.83,3.81 -19.83,18.05 -0.04,14.16 3.35,20.08 18.01,20.08 33.16,0.08 41.97,-3.85 37.42,12.87 -9.44,4.31 -45.29,-1.53 -55.18,2.24 -0.58,14.07 -0.66,12.5 6.75,12.42l34.73 -0.04c16.68,0 28.98,1.49 28.98,-17.47 0,-14.12 -1.57,-21.61 -18.92,-21.73 -6.91,-0.04 -31.29,1.57 -35.47,-1.08l-0.04 0.04z"/>
     <path class="fil38" d="M557.56 561.43c3.6,-0.66 2.82,-1.04 2.94,-5.21 0.29,-8.82 0.45,-8.11 -7.45,-8.11l-41.06 0c-14.07,0 -19.79,4.06 -19.83,18.09 0,14.28 3.23,19.95 17.96,20.12 8.15,0.08 32,-2.19 36.92,1.49 2.15,3.19 1.78,7.2 0.5,11.3 -7.91,4.43 -45.16,-1.49 -55.18,2.32 -0.45,12.34 -1.04,12.38 5.01,12.38l41.97 0c13.45,0 23.51,-0.79 23.51,-16.52 0,-13.91 -0.91,-22.52 -18.92,-22.64 -6.75,-0.04 -31.62,1.49 -35.47,-1.12 -2.4,-2.03 -2.98,-7.41 -1.2,-10.1 1.78,-2.65 6.46,-1.95 10.18,-1.95l40.11 0.04 0 -0.09z"/>
     <path class="fil38" d="M512.9 482.58c2.32,1.99 14.69,24.17 15.36,27.57l-30.8 0.08c0.79,-3.48 5.34,-11.01 7.2,-14.36 2.03,-3.6 5.26,-11.59 8.2,-13.29l0.04 0zm-29.22 51.58c3.44,-4.64 4.14,-8.11 7.29,-13.04l43.96 0.21 7.16 13.08 14.98 0.08c-0.99,-6.33 -23.26,-43.13 -28.85,-53.94 -3.77,-7.25 -4.84,-11.38 -15.32,-11.47 -10.97,-0.08 -11.96,3.97 -15.98,11.71 -5.38,10.31 -27.53,48.18 -28.31,53.77l15.07 -0.41 -0 0z"/>
     <path class="fil38" d="M162.87 613.26l0.58 -25.87 53.77 -0.41c1.86,-2.4 1.57,-7.74 0.5,-11.34l-54.14 -0.08c0.54,-16.43 6.58,-14.16 21.65,-14.16 6.46,0 28.73,1.41 32.62,-0.74l1.08 -2.73c2.73,-14.32 -5.71,-9.81 -33.69,-9.81 -9.89,0 -21.86,-0.91 -28.81,4.76 -7.58,6.13 -7.12,15.19 -7.08,27.03 0,7.33 -0.87,27.61 0.58,33.69l13 -0.33 -0.04 -0z"/>
     <path class="fil38" d="M393.23 469.25c0.79,4.76 24.47,45.74 28.81,53.61 4.22,7.7 4.84,11.71 16.02,11.71 10.8,0 11.26,-4.47 15.6,-12.13 4.76,-8.44 27.78,-49.3 28.11,-53.23l-15.69 0.04c-4.39,10.39 -15.07,27.98 -20.9,39.24 -1.86,3.6 -4.43,10.68 -8.03,12.38 -5.09,-4.88 -22.89,-43.71 -29.23,-51.7l-14.69 0.04 0 0.04z"/>
     <path class="fil38" d="M290.98 613.1l0.29 -51.7 30.71 -0.33c1.53,-1.78 1.49,-6.54 0.99,-9.44l-0.41 -1.49c-0.04,-0.17 -0.25,-0.29 -0.29,-0.66 -0.33,-3.02 -74.43,-1.82 -75.83,-0.62 -1.24,1.08 -1.28,3.77 -1.2,6.38 0,0.95 0.12,2.53 0.33,3.48 1.37,7.25 19.5,1.16 31.34,3.27 0.83,12.54 -1.74,41.56 0.7,51.62l13.33 -0.54 0.04 0.04z"/>
     <path class="fil38" d="M146.89 481.92c6.83,0 25.33,-1.12 30.63,0.74 2.48,13.25 -2.19,39.28 1.04,51.54l13.08 0 0.41 -51.54 31.29 -1.28 -0.21 -11.59c-4.68,-1.28 -70.45,-1.24 -76.99,-0.25 -0.58,3.72 -1.2,9.97 0.79,12.38l-0.04 0z"/>
     <path class="fil38" d="M238.83 549.06c-1.74,-1.16 -6,-1.08 -8.98,-0.95 -4.76,0.17 -4.47,0.37 -4.55,5.21 -0.17,10.02 -0.62,55.92 0.74,59.69 3.02,1.16 10.39,1.32 13.08,-0.25 1.49,-3.85 1.16,-61.39 -0.29,-63.66l0 -0.04z"/>
     <path class="fil38" d="M489.14 463.95c9.94,4.06 8.49,-2.07 10.35,-7.04 10.22,-2.44 10.8,6.62 22.64,7.62 10.93,0.91 16.97,-3.93 14.16,-15.65 -13,-1.95 -6.79,1.32 -10.6,7.7 -9.44,2.07 -10.68,-6.09 -21.86,-7.49 -11.18,-1.41 -16.97,3.44 -14.65,14.9l-0.04 -0.04z"/>
     <path class="fil39" d="M290.98 613.1c1.37,-1.78 1.24,-0.99 1.2,-5.84l-0.04 -44.95 27.24 0c4.35,-0.25 1.37,0.08 2.65,-1.2l-30.71 0.33 -0.29 51.7 -0.04 -0.04z"/>
     <path class="fil40" d="M178.55 534.2c-3.23,-12.25 1.45,-38.29 -1.04,-51.54 -5.3,-1.86 -23.8,-0.74 -30.63,-0.74 1.94,1.61 3.97,1.08 7.29,1.04l22.68 0.12 0.08 39.33c0,6.42 -1.16,10.31 1.61,11.84l0 -0.04z"/>
     <path class="fil39" d="M162.87 613.26c1.57,-1.24 0.91,1.57 1.53,-2.36l0.08 -22.72c8.94,-0.25 18.13,-0.08 27.11,-0.08 3.89,0 23.8,1.08 25.62,-1.12l-53.77 0.41 -0.58 25.87z"/>
     <path class="fil41" d="M320.79 455.8l-0.5 -2.49c-0.91,0.66 -1.62,0.91 -2.19,2.15 -1.86,4.02 0.29,2.69 0.66,3.06l2.07 -2.73 -0.04 0z"/>
     <path class="fil42" d="M320.29 453.27l0.5 2.49 2.98 -4.59c-2.32,0.91 -0.79,0.66 -1.66,-0.58 -1.82,1.12 -0.91,-1.74 -1.86,2.69l0.04 -0z"/>
     <path class="fil33" d="M339.91 433.11c1.74,-0.99 1.45,1.2 1.82,-0.95l0.5 -1.9c-2.9,1.86 -1.08,-0.37 -2.32,2.9l0 -0.04z"/>
     <path class="fil5" d="M349.47 422.43c2.98,-1.16 1.24,0.54 2.32,-2.44 -1.99,0.91 -1.12,-0.58 -2.32,2.44z"/>
     <path class="fil17" d="M335.07 439.32l3.48 -3.73c-3.68,1.78 -1.95,0.45 -3.48,3.73z"/>
     <path class="fil43" d="M622.06 484.03c-1.45,-1 1.28,-0.12 -1.94,-1.28 -2.28,-0.79 -1.66,-0.37 -3.6,-0.62l5.55 1.9 -0 0z"/>
     <path class="fil5" d="M351.67 419.41c1.86,-0.91 1.57,1.08 1.57,-1.04 1.57,0 1.04,0.33 0.99,-1.61l-2.61 2.65 0.04 0z"/>
     <path class="fil40" d="M634.43 475.25c-1.16,-1.41 -0.29,-0.99 -2.73,-1.9l2.73 1.9z"/>
     <polygon class="fil40" points="575.74,519.54 573.96,516.6 "/>
    </g>
   </g>
  </g>
 </g>
</svg>
