<?xml version="1.0" encoding="UTF-8"?>
<!DOCTYPE svg PUBLIC "-//W3C//DTD SVG 1.1//EN" "http://www.w3.org/Graphics/SVG/1.1/DTD/svg11.dtd">
<!-- Creator: CorelDRAW 2020 (64 Bit) -->
<svg xmlns="http://www.w3.org/2000/svg" xml:space="preserve" width="22.8448mm" height="23.062mm" version="1.1" style="shape-rendering:geometricPrecision; text-rendering:geometricPrecision; image-rendering:optimizeQuality; fill-rule:evenodd; clip-rule:evenodd"
viewBox="0 0 120.07 121.21"
 xmlns:xlink="http://www.w3.org/1999/xlink"
 xmlns:xodm="http://www.corel.com/coreldraw/odm/2003">
 <defs>
  <style type="text/css">
   <![CDATA[
    .fil18 {fill:#290816}
    .fil5 {fill:#330509}
    .fil6 {fill:#360814}
    .fil7 {fill:#380807}
    .fil11 {fill:#3A0105}
    .fil14 {fill:#410A0D}
    .fil12 {fill:#481515}
    .fil37 {fill:#4C4C4C}
    .fil23 {fill:#540607}
    .fil39 {fill:#562027}
    .fil19 {fill:#580A14}
    .fil17 {fill:#5C1413}
    .fil15 {fill:#670C17}
    .fil22 {fill:#6C070A}
    .fil24 {fill:#6F2A34}
    .fil20 {fill:#79131A}
    .fil26 {fill:#7A0A17}
    .fil3 {fill:#881825}
    .fil35 {fill:#8A0B1A}
    .fil38 {fill:#8C8C8C}
    .fil28 {fill:#8E1018}
    .fil31 {fill:#931329}
    .fil33 {fill:#943548}
    .fil30 {fill:#95252F}
    .fil2 {fill:#971927}
    .fil41 {fill:#9B9B9B}
    .fil27 {fill:#A81726}
    .fil16 {fill:#AA2730}
    .fil25 {fill:#AC0B18}
    .fil40 {fill:#AD2535}
    .fil10 {fill:#B32E45}
    .fil21 {fill:#B82637}
    .fil32 {fill:#B91B2A}
    .fil34 {fill:#C21E34}
    .fil29 {fill:#C72538}
    .fil8 {fill:#CF1B36}
    .fil9 {fill:#D12832}
    .fil13 {fill:#D9253A}
    .fil4 {fill:#E62636}
    .fil36 {fill:#F3F3F3}
    .fil1 {fill:#FA1A31}
    .fil0 {fill:#FD1A30}
   ]]>
  </style>
 </defs>
 <g id="Camada_x0020_1">
  <metadata id="CorelCorpID_0Corel-Layer"/>
  <g id="_2153682682048">
   <path class="fil0" d="M75.49 3.47c-0.49,0.25 -0.45,0.21 -0.72,0.75l-0.53 0.54c-0.25,0.4 -0.13,0.28 -0.47,0.6 -0.51,0.48 -0.21,0.18 -0.6,0.43 -0.58,1.05 -1.85,2.11 -2.58,3.12l-0.02 0.53 -0.48 0.04c-0.88,0.7 -2.26,2.55 -3.29,3.68 -0.61,0.66 -1.05,1.15 -1.65,1.88 -0.49,0.6 -1.07,1.15 -1.58,1.82l-0.19 0.38c0,0.37 0.07,0.23 -0.39,0.24l-1.69 2.21c-0.06,0.7 -0.26,0.91 -0.5,1.36l-0.78 0.15c-0.61,0.14 -1.98,1.97 -2.14,2.34l-0.05 0.53c-0.42,0.62 -0.61,0.8 -1.34,1.1 -0.44,0.11 -0.4,0.26 -0.78,0.71 -0.32,0.38 -0.5,0.57 -0.83,0.95 -0.65,0.75 -1.12,1.27 -1.64,1.89 -0.83,0.97 -2.5,2.67 -3.1,3.6 -0.06,0.63 -0.09,0.5 -0.59,0.79l0.05 0.03c-0.27,0.66 -0.11,0.54 -0.74,0.7l-0.42 0.44 -0.51 0.57 -1.92 2.23c-0.18,0.31 0.03,0.15 -0.29,0.44 -0.39,0.35 0.06,0 -0.5,0.32 -0.9,1.12 -1.8,2.07 -2.88,3.24l-0.23 0.62c0.19,0.14 0.22,0.31 0.36,0.51 0.69,0.12 16.88,7.1 17.23,7.4 0.37,0.24 0.4,-0.33 0.21,0.55 -0,0.01 -0.28,0.47 -0.32,0.55 -0.45,0.78 -0.16,0.62 -0.85,1.1l-1.69 3.51 -0.14 0.57c-0.09,0.49 -0.02,-0.03 -0.4,0.21 -0.58,1.4 -1.5,2.81 -2.18,4.13 -0.37,0.72 -1.89,3.37 -1.99,3.98 -0.11,0.2 -0.24,0.49 -0.36,0.7 -0.08,0.13 -0.1,0.18 -0.18,0.3 -0.29,0.37 -0.08,0.12 -0.41,0.39l-0.72 1.65 -0.59 1.3c-0.04,0.05 -0.09,0.1 -0.13,0.14l-0.32 0.27c-0.28,0.64 -1.27,2.13 -1.3,2.7 -0.13,0.27 -0.18,0.45 -0.36,0.72 -0.48,0.72 -0.18,0.3 -0.64,0.63 -0.2,1.02 -1.68,3.38 -2.25,4.44 -0.4,0.74 -2.03,3.56 -2.21,4.25 0.2,0.3 -0.16,0.36 0.4,0.14 0.82,-0.49 1.75,-2.22 2.72,-2.87 0.37,-0.79 -0.05,-0.47 0.84,-0.9 0.1,-0.38 0.14,-0.32 0.33,-0.6 0.29,-0.79 -0.15,-0.25 0.56,-0.7 0.78,-0.62 1.26,-1.38 1.75,-1.87 0.28,-0.73 0.08,-0.38 0.56,-0.59l-0.03 -0.14 0.63 -0.64c0.44,-0.41 0.87,-0.96 1.27,-1.4l1.33 -1.43c0.19,-0.35 -0.01,-0.26 0.44,-0.61l0.07 -0.49 0.37 -0.12 0.51 -0.53 1.81 -1.89 0.11 -0.4 0.06 -0.62 0.62 -0.14c0.41,-0.32 0.17,-0.12 0.65,-0.38 0.14,-0.6 2.91,-3.52 3.6,-4.35 0.45,-0.54 0.71,-0.99 1.22,-1.28 0.25,-0.6 0.12,-0.61 0.87,-1.03l2.17 -2.76c0.16,-0.45 0.33,-0.94 0.62,-1.3 0.13,-0.16 0.23,-0.25 0.44,-0.41l0.85 -0.44c0.96,-0.61 1.48,-1.91 2.35,-2.42 0.33,-0.74 -0.11,-0.48 0.78,-0.78l-0.07 -0.03c0.3,-0.63 0.01,-0.35 0.63,-0.79l0.48 -0.71 0.63 -0.69 1.16 -1.36 0.22 -0.56 0.44 -0.08 -0 -0.15c0,-0.48 -0.14,-0.4 0.26,-0.4 0.33,-0.57 -0.02,-0.06 0.44,-0.2 0.18,-0.64 -0.28,0.03 0.26,-0.63 0.42,-0.51 0.18,-0.18 0.57,-0.42 0.6,-0.57 2.29,-2.08 2.37,-3.06l-8.17 -3.5 -0.65 -0.04 -0.18 -0.38 -8.42 -3.51 -0.58 -0.14 0.27 -0.87c0.19,-0.28 0.18,-0.21 0.34,-0.36 0.06,-0.69 0.05,-0.43 0.41,-1.1 0.38,-0.71 0.26,-0.64 0.86,-1.12 0.03,-0.57 0.87,-1.92 1.17,-2.42l0.09 -0.46 0.35 -0.16c0.35,-1.47 2.32,-3.94 2.44,-5.05 0.22,-0.5 0.05,-0.19 0.34,-0.57 0.03,-0.04 0.13,-0.04 0.16,-0.14 0.03,-0.1 0.12,-0.08 0.17,-0.12l0.22 -0.54 0.18 -0.52 0 -0.57 0.42 -0.11 0.38 -0.5c0.68,-1.67 2.09,-4.07 3.08,-5.88 0.5,-0.9 1.08,-1.89 1.57,-2.83 0.41,-0.79 1.09,-2.23 1.51,-2.76 0.2,-0.75 0.18,-0.55 0.51,-1.17 0.12,-0.23 0.19,-0.42 0.3,-0.57 0.29,-0.4 0.03,-0.08 0.42,-0.38l0.77 -2.04 -0.1 -0.64c-0.28,0.53 0.16,0.03 -0.54,0.21z"/>
   <path class="fil0" d="M21.25 64.78c0.6,0.36 0.23,-0.12 0.63,0.75 0.36,1.64 4.76,3.45 6.65,1.78l1.12 -0.91 0.31 0.08c0.25,-0.7 -0.15,-0.29 0.53,-0.64 0.41,-1.66 0.9,-1.65 0.91,-4.06 0,-1.62 -0.01,-3.24 -0.01,-4.86 0,-3.25 -0.06,-6.59 0.01,-9.8l0.3 -0.65 0.36 0.59 15.01 -0.17 -8.84 -3.73 -0.73 -0.4 0.5 -0.54 0.38 -0.41c0.26,-0.46 -0.37,-0.37 0.29,-0.43l0.29 0.02c0.21,-0.86 0.31,-0.84 1.04,-1.21l1.86 -2.42c0.29,-0.78 -0.23,-0.25 0.58,-0.61 0.05,-0.66 0.09,-0.22 -0.23,-0.59l-10.73 0.02c-0.86,-5.66 1.36,-17.23 -1.61,-19.21 -0.6,-0.33 -0.45,-0.18 -0.78,-0.78l-1.74 -0.96c-2.79,0.65 -3.22,-0.39 -5.15,1.89 -1.42,1.68 -1.34,2.92 -1.34,5.67l-0 35.28c0,4.39 -0.13,2.44 0.4,6.32z"/>
   <path class="fil0" d="M90.37 17.01l-0.41 0.8 -0.55 0.74 -0.5 1.36c0.05,2.61 0.41,15.98 -0.42,17.23l-13.01 -0.38c-0.91,-0.02 -1.33,-0.2 -1.35,0.52 1.29,0.3 2.39,1.02 3.65,1.5 1.27,0.49 2.48,0.93 3.46,1.47l1.05 0.24c0.57,0.18 0.17,-0.19 0.58,0.33l-0.16 0.37c-0.47,0.89 -0.74,1.24 -1.55,1.47 -0.29,0.17 -3.32,3.25 -3.56,4.41 1.94,-0.06 9.73,-0.33 10.92,0.1 0.43,0.36 0.25,4.17 0.25,4.9 0,3.45 -0.56,12.5 1.17,13.93 0.7,0.17 0.35,-0.09 0.93,0.49 0.57,0.56 0.34,0.65 0.33,0.71 0.91,0.37 0.44,0.4 1.63,0.62 0.59,0.11 1.33,0.15 2.03,0.06 1.28,-0.17 2.33,-1.19 2.9,-1.25 0.23,-0.45 0.23,-0.5 0.47,-0.87 0.03,-0.05 0.24,-0.36 0.27,-0.39 0.31,-0.31 0.03,-0.06 0.45,-0.31 -0.03,-0.94 0.33,-1.49 0.36,-2.61 0.02,-0.94 -0.01,-1.93 -0.01,-2.87l-0 -35.5c-0.01,-4.24 0.04,-1.91 -0.39,-5.29l-0.38 -0.17 -0.07 -0.46 -0.6 -0.83c-0.71,-0.34 -0.54,-0.17 -0.78,-0.8l-0.16 0.08 -0.49 -0.2c-0.42,0 -0.3,0.1 -0.3,-0.35 -1.2,-0.35 -2,-0.18 -3.15,-0.43l-2.6 1.38z"/>
   <path class="fil0" d="M10.71 26.6l-0.11 0.48 -0.7 0.07c-2.58,1.7 -2.08,5.32 -2.08,8.61 0,3.6 0,7.2 0,10.8 0,3.89 -1.11,10.74 5.3,10.99 1.89,0.07 2.87,-1.12 3.66,-1.42 0.22,-0.44 -0.07,-0.19 0.45,-0.69l0.15 -0.56c0.08,-0.45 0.02,0.02 0.41,-0.2 0.62,-2.43 0.57,-3.3 0.57,-6.13 0,-2.28 0,-4.56 0,-6.83 0,-3.76 0.57,-9.69 -0.58,-12.71 -0.59,-0.25 -0.6,-0 -0.71,-0.9l0.15 -0.1c-0.75,-0.39 -0.51,-0.1 -0.88,-0.89 -0.71,-0.18 -1.51,-0.82 -2.62,-0.97 -1.02,-0.13 -2.13,0.21 -3,0.46z"/>
   <path class="fil0" d="M104.09 27.15c-3.1,1.16 -2.21,8.71 -2.21,12.13 0,4.73 -0.07,9.49 0.06,14.19 0.22,0.25 0.12,0.05 0.33,0.51 0.17,0.37 -0.05,-0.83 0.08,0.5l0.07 0.25c0.73,0.41 0.26,-0.22 0.5,0.71 0.54,0.58 1.71,1.68 2.88,2 1.26,0.34 3.1,0.05 3.88,-0.7l1.1 -0.93c2.34,-0.65 1.56,-11.12 1.56,-14.11 0,-2.65 0,-5.29 0,-7.94 0,-1.15 0.21,-5.33 -1.56,-5.95 -0.65,-0.41 -0.25,0.06 -0.57,-0.64 -0.48,-0.2 -0.39,-0.2 -0.77,-0.43l-0.87 -0.56c-0.75,0.05 -1.8,-0.25 -2.55,0.06 -0.28,0.29 -0.04,0.14 -0.46,0.39 -0.13,0.08 -0.32,0.12 -0.45,0.18 -0.42,0.17 -0.47,0.24 -1.01,0.34z"/>
   <path class="fil1" d="M117.52 46.41c0.04,-0.06 0.08,-0.22 0.11,-0.18 0.03,0.04 0.09,-0.13 0.13,-0.16 0.31,-0.26 0.06,-0.11 0.53,-0.34 1.81,-0.97 1.84,-3.29 1.75,-5.51 -0.37,-0.25 -0.3,0.29 -0.37,-0.22l-0.14 -0.56c-0.21,-0.6 -0.41,-0.88 -0.82,-1.11 -0.68,-0.37 -0.26,0.11 -0.52,-0.64 -0.65,-0.37 -1.82,-1.39 -3.15,-0.74 -0.39,1.29 -0.27,8.3 -0.07,10.03 1.13,0.05 1.85,-0.27 2.56,-0.58z"/>
   <path class="fil1" d="M0.75 44.81c0.65,0.36 0.52,0.18 1.01,0.89 0.39,0.37 1,0.85 1.72,1.04 0.19,0.01 0.87,0.08 1.03,0.07 0.39,-0.02 0.43,-0.1 0.62,-0.16l-0.09 -9.8 -1.48 0.09c-1.36,0.16 -2.59,1.55 -3.19,2.83 -0.36,0.77 -0.43,1.81 -0.32,2.83 0.13,1.22 0.52,1.19 0.7,2.21z"/>
   <path class="fil2" d="M74.14 37.28c0.02,-0.72 0.43,-0.54 1.35,-0.52l13.01 0.38c0.83,-1.25 0.47,-14.62 0.42,-17.23 -0.82,1.63 0.19,13.81 -0.33,16.28l-0.95 0.27c-3.01,0.23 -11.84,-0.35 -14.7,0.04 0.15,0.52 -0.38,0.06 0.44,0.53 0.41,0.23 0.09,0.08 0.76,0.25z"/>
   <path class="fil3" d="M3.56 36.94l1.48 -0.09 0.09 9.8c-0.19,0.06 -0.22,0.14 -0.62,0.16 -0.16,0.01 -0.84,-0.06 -1.03,-0.07 0.27,0.21 -0.1,0.21 0.78,0.42 0.49,0.11 0.52,0.01 0.9,-0.03 0.19,-0.33 0.18,0.02 0.3,-0.79 0.02,-0.14 -0,-0.71 -0.01,-0.89l-0.03 -4.85c0,-0.81 0.12,-2.68 0.05,-3.33 -0.14,-1.23 -1.53,-0.99 -1.91,-0.33z"/>
   <path class="fil4" d="M75.49 3.47c0.7,-0.18 0.26,0.32 0.54,-0.21l0.1 0.64c0.73,-0.61 0.43,-0.78 1.04,-1.32l-0.03 -0.72 -0.56 0.23c-0.57,0.42 -0.79,0.6 -1.09,1.37z"/>
   <path class="fil5" d="M90.37 17.01l2.6 -1.38c-0.91,-0.12 -1.15,0.07 -2.11,0.23l-0.49 1.15z"/>
   <path class="fil6" d="M29.09 16.59l0.66 0.23c-0.33,-1.12 -1.15,-1.39 -2.4,-1.19l1.74 0.96z"/>
   <path class="fil7" d="M110.21 27.18c0.29,0.14 0.39,0.13 0.67,0.25l-0.17 -0.67c-0.54,-0.35 -1.24,-0.74 -2.13,-0.58l0.87 0.56c0.37,0.24 0.29,0.23 0.77,0.43z"/>
   <path class="fil8" d="M81.74 41.61c-0.22,0.55 -0.25,0.33 -0.56,1.05 0.81,-0.23 1.08,-0.58 1.55,-1.47l0.16 -0.37c-0.41,-0.51 -0.02,-0.14 -0.58,-0.33l0.08 0.79 -0.64 0.33z"/>
   <path class="fil9" d="M65.72 56.12c0.49,-0.28 0.09,0.03 0.6,-0.42 0.03,-0.02 0.19,-0.23 0.26,-0.31l0.49 -0.59c0.32,-0.26 0.36,-0.31 0.55,-0.82l-0.85 0.44c-0.22,0.16 -0.32,0.25 -0.44,0.41 -0.29,0.35 -0.46,0.85 -0.62,1.3z"/>
   <path class="fil7" d="M74.13 8.06c0.61,-0.29 0.49,-0.17 0.86,-0.79 0.4,-0.67 0.32,-0.63 0.37,-1.33 -0.38,0.3 -0.13,-0.02 -0.42,0.38 -0.11,0.15 -0.18,0.34 -0.3,0.57 -0.33,0.63 -0.31,0.43 -0.51,1.17z"/>
   <path class="fil10" d="M76.59 2.1l0.56 -0.23 0.03 0.72 0.57 -1.14c0.13,-0.7 0.36,-0.77 -0.18,-0.77 -0.14,0.28 -0.11,0.22 -0.39,0.57 -0.39,0.48 -0.3,0.31 -0.59,0.85z"/>
   <path class="fil5" d="M67.58 20.03l-0.42 0.67 -0.18 0.52c0.95,0.32 0.98,-0.33 0.99,-1.69l-0.38 0.5z"/>
   <path class="fil11" d="M57.2 65.9c-0.36,0.77 0.02,0.35 -0.68,0.76l-0.11 0.4c1.07,-0.15 1.08,-0.36 1.44,-1.54 -0.48,0.25 -0.24,0.06 -0.65,0.38z"/>
   <path class="fil12" d="M77.57 0.68c0.54,0 0.31,0.06 0.18,0.77 0.3,-0.19 0.46,-0.03 0.64,-0.62 0.34,-1.09 -0.29,-0.73 -0.53,-0.82 -0.3,0.41 -0.03,-0.11 -0.29,0.68z"/>
   <path class="fil13" d="M60.74 20.03c-0.28,0.86 -0.02,0.42 -0.68,0.77l-0.03 0.39 0.78 -0.15c0.24,-0.45 0.44,-0.66 0.5,-1.36 -0.47,0.23 -0.12,-0.09 -0.57,0.34z"/>
   <path class="fil13" d="M56.5 25.17c0.72,-0.3 0.91,-0.48 1.34,-1.1l0.05 -0.53c-0.53,0.3 -0.42,0.26 -0.78,0.66 -0.62,0.68 -0.24,0.07 -0.61,0.97z"/>
   <path class="fil5" d="M48.27 34.02c0.4,-0.27 0.18,-0.11 0.59,-0.18 0.18,-0.35 -0.05,-0.17 0.26,-0.44 0.32,-0.28 -0,-0.08 0.48,-0.26l-0.05 -0.03 0.05 -0.42c-0.9,0.18 -1.18,0.5 -1.33,1.33z"/>
   <path class="fil14" d="M81.74 41.61l0.64 -0.33 -0.08 -0.79 -1.05 -0.24c0.29,0.59 -0.61,0.45 0.79,0.61l-0.3 0.75z"/>
   <path class="fil15" d="M58.74 51.81c0.69,-0.49 0.4,-0.32 0.85,-1.1 0.04,-0.07 0.32,-0.54 0.32,-0.55 0.19,-0.88 0.16,-0.3 -0.21,-0.55 -0.2,1.16 -0.58,0.78 -0.97,2.2z"/>
   <path class="fil16" d="M104.09 27.15c0.54,-0.1 0.59,-0.17 1.01,-0.34 0.14,-0.06 0.32,-0.1 0.45,-0.18 0.43,-0.26 0.18,-0.1 0.46,-0.39 -0.47,0.05 -0.85,0.1 -1.19,0.25 -0.67,0.31 -0.48,0.3 -0.74,0.65z"/>
   <path class="fil7" d="M62.68 59.9l0.88 0.03 -0.01 -1.06c-0.76,0.42 -0.62,0.43 -0.87,1.03z"/>
   <path class="fil11" d="M53.66 70.09c-0.45,0.35 -0.25,0.26 -0.44,0.61l0.72 -0.06 0.46 -1.16 -0.3 0.01 -0.44 0.61z"/>
   <path class="fil14" d="M38.96 41.39l0.7 -0.22 0.34 -1c-0.73,0.38 -0.82,0.35 -1.04,1.21z"/>
   <path class="fil14" d="M97.76 66.62c0.84,-0.31 0.9,-0.79 1.19,-1.57 -0.42,0.25 -0.14,0 -0.45,0.31 -0.03,0.03 -0.24,0.34 -0.27,0.39 -0.24,0.38 -0.24,0.42 -0.47,0.87z"/>
   <path class="fil6" d="M79.05 43.25c-0.04,-0.03 -0.33,-0.94 -0.91,0.22 0.06,0.04 -0.34,0.42 0.58,0.17 0.6,-0.16 0.12,-0.04 0.33,-0.39z"/>
   <path class="fil17" d="M60.73 34.26l0.04 -1.37c-0.16,0.15 -0.16,0.08 -0.34,0.36l-0.27 0.87 0.58 0.14z"/>
   <path class="fil18" d="M75.75 1.05c0.57,-0.25 0.95,-0.16 0.63,-0.96 -0.7,0.35 -0.49,0.06 -0.63,0.96z"/>
   <path class="fil19" d="M73.18 5.79c0.39,-0.25 0.08,0.05 0.6,-0.43 0.34,-0.32 0.22,-0.2 0.47,-0.6 -0.79,0.09 -0.86,0.18 -1.07,1.03z"/>
   <path class="fil20" d="M60.76 32.89l1.26 -2.22c-0.6,0.48 -0.47,0.41 -0.86,1.12 -0.36,0.67 -0.35,0.41 -0.41,1.1z"/>
   <path class="fil2" d="M49.62 68.96l0.32 -0.27c0.04,-0.04 0.09,-0.09 0.13,-0.14l0.59 -1.3c-0.22,0.18 -0.19,0.1 -0.41,0.37 -0.21,0.25 -0.02,-0.03 -0.25,0.41 -0.2,0.38 -0.23,0.5 -0.38,0.93z"/>
   <path class="fil21" d="M91.21 67.19c0.01,-0.06 0.24,-0.15 -0.33,-0.71 -0.59,-0.58 -0.23,-0.32 -0.93,-0.49l1.26 1.2z"/>
   <path class="fil5" d="M16.78 56.13l0.76 -0.21 0.13 -0.61 -0.45 0.13c-0.52,0.5 -0.23,0.25 -0.45,0.69z"/>
   <path class="fil3" d="M42.47 42.21c-0.14,-0.2 -0.16,-0.37 -0.36,-0.51l0.23 -0.62c-0.76,0.49 -0.47,0.06 -0.56,0.92l0.68 0.21z"/>
   <path class="fil3" d="M51.39 65.6c0.33,-0.27 0.12,-0.02 0.41,-0.39 0.09,-0.11 0.11,-0.17 0.18,-0.3 0.12,-0.2 0.25,-0.49 0.36,-0.7 -0.49,0.32 -0.14,-0.25 -0.67,0.65 -0.15,0.24 -0.18,0.45 -0.28,0.74z"/>
   <path class="fil3" d="M47.33 73.01c0.46,-0.33 0.17,0.09 0.64,-0.63 0.18,-0.27 0.23,-0.45 0.36,-0.72 -0.46,0.37 -0.27,0.1 -0.66,0.68 -0.19,0.28 -0.21,0.39 -0.34,0.67z"/>
   <path class="fil2" d="M74.94 45.8c0.61,-0.39 0.56,-0.35 0.83,-1.05 -0.39,0.24 -0.15,-0.09 -0.57,0.42 -0.54,0.66 -0.07,-0.01 -0.26,0.63z"/>
   <path class="fil22" d="M17.21 28c-0.23,-0.52 -0.24,-0.77 -0.88,-0.89 0.37,0.79 0.14,0.5 0.88,0.89z"/>
   <path class="fil22" d="M60.06 20.81c0.66,-0.36 0.4,0.09 0.68,-0.77l-0.62 0.18 -0.06 0.6z"/>
   <path class="fil20" d="M1.76 45.7c-0.48,-0.71 -0.36,-0.53 -1.01,-0.89 0.42,0.84 0.29,0.67 1.01,0.89z"/>
   <path class="fil23" d="M69.98 51.55c0.68,-0.21 0.47,-0.11 0.78,-0.78 -0.89,0.3 -0.45,0.04 -0.78,0.78z"/>
   <polygon class="fil24" points="9.9,27.14 10.6,27.08 10.71,26.6 10.04,26.76 "/>
   <path class="fil10" d="M56.52 66.67c0.71,-0.42 0.32,0 0.68,-0.76l-0.62 0.14 -0.06 0.62z"/>
   <path class="fil3" d="M74.24 46.4c0.61,-0.14 0.55,0.01 0.71,-0.59 -0.46,0.13 -0.12,-0.37 -0.44,0.2 -0.4,0 -0.26,-0.08 -0.26,0.4z"/>
   <path class="fil20" d="M97.84 17.32c-0.24,-0.61 0.04,-0.49 -0.78,-0.8 0.23,0.63 0.06,0.45 0.78,0.8z"/>
   <path class="fil3" d="M45.23 37.84c0.56,-0.32 0.11,0.03 0.5,-0.32 0.32,-0.29 0.11,-0.13 0.29,-0.44 -0.57,0.17 -0.63,0.01 -0.79,0.77z"/>
   <path class="fil25" d="M17.23 55.44l0.45 -0.13 0.11 -0.63c-0.39,0.22 -0.33,-0.26 -0.41,0.2l-0.15 0.56z"/>
   <path class="fil26" d="M38.22 43.15c-0.22,-0.44 -0.17,-0.31 -0.23,-0.94l-0.5 0.54 0.73 0.4z"/>
   <path class="fil27" d="M29.87 17.37c-0.18,-0.47 -0.07,-0.26 -0.12,-0.55l-0.66 -0.23c0.33,0.61 0.18,0.45 0.78,0.78z"/>
   <path class="fil28" d="M102.92 55.45c-0.24,-0.93 0.22,-0.31 -0.5,-0.71l0.02 0.59 0.49 0.12z"/>
   <path class="fil28" d="M56.51 56.11c0.38,-0.24 0.31,0.28 0.4,-0.21l0.14 -0.57c-0.56,0.26 -0.38,0.1 -0.54,0.79z"/>
   <path class="fil16" d="M28.53 67.31c0.74,-0.22 0.23,0.13 0.8,-0.35 0.39,-0.33 0.04,-0.01 0.32,-0.56l-1.12 0.91z"/>
   <path class="fil29" d="M48.86 33.83c0.63,-0.15 0.48,-0.04 0.74,-0.7 -0.49,0.18 -0.16,-0.01 -0.48,0.26 -0.31,0.26 -0.08,0.08 -0.26,0.44z"/>
   <path class="fil30" d="M96.91 16.61c-0.33,-0.51 0.08,-0.41 -0.79,-0.55 0,0.45 -0.12,0.35 0.3,0.35l0.49 0.2z"/>
   <path class="fil31" d="M66.08 22.59c0.5,-0.27 0.42,0.29 0.49,-0.24l0.18 -0.59c-0.06,0.04 -0.15,0.02 -0.17,0.12 -0.03,0.1 -0.13,0.1 -0.16,0.14 -0.29,0.38 -0.11,0.07 -0.34,0.57z"/>
   <path class="fil32" d="M49.59 32.69l-0.05 0.42c0.5,-0.29 0.54,-0.17 0.59,-0.79l-0.55 0.38z"/>
   <path class="fil20" d="M69.97 38.2c-0.49,-0.61 -0,-0.3 -0.83,-0.43l0.18 0.38 0.65 0.04z"/>
   <path class="fil25" d="M41.86 37.76l0.49 -0.11 0.08 -0.5c-0.8,0.36 -0.28,-0.17 -0.58,0.61z"/>
   <path class="fil16" d="M109.68 56.75c0.87,-0.28 0.71,-0.18 1.1,-0.93l-1.1 0.93z"/>
   <path class="fil3" d="M102.35 54.49c-0.13,-1.33 0.09,-0.13 -0.08,-0.5 -0.21,-0.46 -0.11,-0.26 -0.33,-0.51 0.05,0.63 -0.1,0.63 0.41,1.01z"/>
   <path class="fil15" d="M70.68 50.74l0.55 -0.28 0.08 -0.52c-0.62,0.44 -0.33,0.17 -0.63,0.79z"/>
   <polygon class="fil9" points="31.4,47.12 32.06,47.05 31.7,46.47 "/>
   <path class="fil14" d="M29.96 66.48l0.49 -0.12 0.04 -0.52c-0.68,0.35 -0.27,-0.06 -0.53,0.64z"/>
   <path class="fil27" d="M110.78 27.81l0.1 -0.38c-0.28,-0.12 -0.38,-0.12 -0.67,-0.25 0.32,0.7 -0.08,0.23 0.57,0.64z"/>
   <path class="fil20" d="M21.88 65.54c-0.4,-0.87 -0.03,-0.39 -0.63,-0.75l0.24 0.47c0,0.42 -0.09,0.29 0.39,0.29z"/>
   <path class="fil33" d="M70.09 9.49l0.48 -0.04 0.02 -0.53c-0.71,0.36 -0.21,-0.21 -0.5,0.57z"/>
   <path class="fil27" d="M73.58 47.2c0.57,-0.3 0.33,0.01 0.66,-0.65l-0.44 0.08 -0.22 0.56z"/>
   <path class="fil34" d="M17.78 29l-0.71 -0.9c0.11,0.89 0.12,0.65 0.71,0.9z"/>
   <path class="fil3" d="M117.52 46.41l0.5 -0.29c0.41,0 0.27,0.09 0.28,-0.39 -0.47,0.23 -0.22,0.08 -0.53,0.34 -0.04,0.03 -0.1,0.2 -0.13,0.16 -0.03,-0.04 -0.07,0.12 -0.11,0.18z"/>
   <path class="fil28" d="M120.05 40.22c-0.13,-0.46 -0.02,-0.19 -0.23,-0.54 -0.02,-0.04 -0.11,-0.04 -0.13,-0.13 -0.02,-0.09 -0.1,-0.08 -0.15,-0.11l0.14 0.56c0.07,0.51 0,-0.03 0.37,0.22z"/>
   <path class="fil2" d="M118.71 38.33l-0.17 -0.4c0,-0.35 0.07,-0.22 -0.35,-0.24 0.26,0.74 -0.15,0.27 0.52,0.64z"/>
   <path class="fil27" d="M98.9 18.78c-0.23,-0.77 0.16,-0.23 -0.46,-0.63l0.07 0.46 0.38 0.17z"/>
   <path class="fil31" d="M71.79 49.24c0.49,-0.22 0.42,0.26 0.51,-0.22l0.12 -0.47 -0.63 0.69z"/>
   <path class="fil30" d="M89.41 18.55l0.55 -0.74c-0.49,0.01 -0.4,-0.13 -0.4,0.29l-0.15 0.45z"/>
   <polygon class="fil33" points="67.16,20.7 67.58,20.03 67.16,20.14 "/>
   <path class="fil3" d="M48.27 34.02l0.17 0.26 0.42 -0.44c-0.4,0.07 -0.19,-0.09 -0.59,0.18z"/>
   <path class="fil3" d="M47.93 34.84l0.51 -0.57c-0.38,0.11 -0.32,-0.34 -0.4,0.13l-0.11 0.44z"/>
   <path class="fil35" d="M38.37 41.8l0.58 -0.41 -0.29 -0.02c-0.66,0.06 -0.03,-0.03 -0.29,0.43z"/>
   <path class="fil3" d="M62.99 17.48c0.46,-0.01 0.39,0.13 0.39,-0.24l0.19 -0.38 -0.58 0.62z"/>
   <path class="fil26" d="M66.59 55.38c0.49,-0.16 0.4,-0 0.49,-0.59l-0.49 0.59z"/>
   <polygon class="fil30" points="53.66,70.09 54.1,69.48 53.73,69.6 "/>
   <polygon class="fil2" points="54.1,69.48 54.4,69.47 54.61,68.96 "/>
   <path class="fil3" d="M74.24 4.76l0.53 -0.54c-0.55,0.23 -0.37,0.01 -0.53,0.54z"/>
   <polygon class="fil28" points="63.2,28.25 63.65,27.64 63.29,27.8 "/>
   <g>
    <path class="fil36" d="M43.37 96.39c-0.68,-7.02 0.6,-7.02 3.9,-7.02 5.53,-0 8.53,-0.85 8.77,2.41 0.08,1.08 0.1,4.43 -0.11,5.34 -0.41,1.79 -1.79,1.67 -3.8,1.67 -5.61,-0 -8.44,0.85 -8.75,-2.39zm-3.45 1.1c0.35,2.56 1.68,4.01 4.27,4.37 2.37,0.33 6.31,0.16 8.8,0.13 2.88,-0.04 5.19,-0.54 6.07,-2.83 0.57,-1.48 0.56,-6.72 0.37,-8.5 -0.59,-5.74 -7.23,-4.59 -13.28,-4.48 -3.08,0.05 -4.97,0.58 -5.87,3.02 -0.56,1.5 -0.61,6.57 -0.37,8.3z"/>
    <path class="fil36" d="M113.98 89.32c0.46,0.06 0.31,-0.04 0.87,0.15 0.78,0.27 0.12,0.07 0.47,0.31 1.09,1.59 0.8,2.58 0.81,4.85 0,1.93 0.16,3.57 -1.59,4.02 -2.09,0.54 -8.45,0.23 -10.41,-0.3l-0.43 -0.7c-0.51,-2.18 -0.95,-7.4 1.13,-8.09 1.73,-0.57 6.94,0.06 9.14,-0.23zm4.32 -1.67l-0.66 -0.46c-1.82,-1.57 -13.46,-1.44 -15.58,-0.17 -2.13,1.27 -2.09,3.73 -2.08,6.73 0,2.71 -0.07,5.68 1.57,7.02 1.77,1.44 5.01,1.23 7.68,1.23 2.41,0 5.97,0.35 7.98,-0.7 2.31,-1.21 2.39,-3.23 2.38,-6.44 -0.01,-2.53 0.26,-5.72 -1.29,-7.2z"/>
    <path class="fil36" d="M44.54 120.96c0.67,0.15 1.4,0.17 2.1,0.15 1.07,-0.03 1.09,0.16 1.24,-0.7 0.21,-1.27 -0.37,-9.54 0.1,-11.82 1.36,0.38 8.22,10.9 9.85,12.08 0.79,0.57 3.91,0.66 4.91,0.21 1.28,-0.57 0.94,-3.03 0.94,-4.65 -0,-1.93 0.23,-9.64 -0.18,-10.95l-3.09 0.05c-0.68,2.44 0.18,9.27 -0.22,12.37 -0.89,-0.04 -1.01,-0.62 -1.47,-1.24l-8.53 -10.87c-0.74,-0.46 -4.02,-0.56 -4.87,-0.13 -1.28,0.64 -0.89,3.24 -0.89,4.59 0,2.49 -0.31,8.86 0.11,10.9z"/>
    <path class="fil36" d="M69.04 111.66c-0.06,-3.91 1.7,-3.2 6.9,-3.2 1.7,0 3.4,0.02 5.09,0.02 0.96,-0 1.32,0.1 1.43,-0.84 0.32,-2.69 -0.67,-2.39 -1.66,-2.4l-10.66 0.11c-4.44,0.58 -4.58,3.47 -4.58,7.8 -0,4.4 0.07,7.23 4.51,7.85 2.01,0.28 10.22,0.3 12.33,0.03l-0.07 -3c-1.98,-0.34 -6.17,-0.11 -8.39,-0.11 -3.57,0 -4.86,0.43 -4.95,-3.45 2.41,0 11.54,0.31 13.23,-0.14 0.16,-3.22 0.19,-2.71 -2.33,-2.69l-10.87 0.02z"/>
    <path class="fil36" d="M24.12 89.34c2.13,-0.13 4.47,-0.03 6.62,-0.04 2.44,-0.01 4.2,-0.44 4.18,2.46 -0.03,2.88 -1.58,2.5 -4.18,2.49 -2.22,-0.01 -4.46,0.02 -6.68,-0.01l0.07 -4.9zm11.06 7.49c0.04,-0.04 0.1,-0.08 0.12,-0.09l1.84 -1.01c1.64,-1.48 1.43,-5.62 0.9,-7.08 -1.18,-3.25 -5.81,-2.49 -9.5,-2.49 -1.99,0 -3.97,0.02 -5.96,-0.01 -1.54,-0.02 -1.94,-0.29 -2,1.17l0.1 14.52c1.01,0.23 2.34,0.26 3.37,-0.03l0.01 -4.78 7.43 0.01c0.96,1.63 2.57,3.28 3.62,4.92l3.76 -0.06c-0.13,-1.05 -3.02,-4.3 -3.69,-5.07z"/>
    <path class="fil36" d="M106.62 111.38c-0.53,-0.46 -0.68,-1.3 -0.42,-2.14 0.28,-0.91 1.01,-0.79 1.92,-0.79 1.69,-0.01 3.39,0.01 5.08,0.01 6.12,0 6.08,0.68 6,-1.95 -0.04,-1.15 0.03,-1.26 -1.14,-1.26l-10.58 0c-3.41,0 -4.79,0.92 -4.79,4.36 -0.01,3.42 0.81,4.85 4.35,4.85 8.01,0.02 10.14,-0.93 9.04,3.11 -2.28,1.04 -10.94,-0.37 -13.33,0.54 -0.14,3.4 -0.16,3.02 1.63,3l8.39 -0.01c4.03,0 7,0.36 7,-4.22 0,-3.41 -0.38,-5.22 -4.57,-5.25 -1.67,-0.01 -7.56,0.38 -8.57,-0.26z"/>
    <path class="fil36" d="M99.74 108.47c0.87,-0.16 0.68,-0.25 0.71,-1.26 0.07,-2.13 0.11,-1.96 -1.8,-1.96l-9.92 0c-3.4,0 -4.78,0.98 -4.79,4.37 0,3.45 0.78,4.82 4.34,4.86 1.97,0.02 7.73,-0.53 8.92,0.36 0.52,0.77 0.43,1.74 0.12,2.73 -1.91,1.07 -10.91,-0.36 -13.33,0.56 -0.11,2.98 -0.25,2.99 1.21,2.99l10.14 -0c3.25,0 5.68,-0.19 5.68,-3.99 -0,-3.36 -0.22,-5.44 -4.57,-5.47 -1.63,-0.01 -7.64,0.36 -8.57,-0.27 -0.58,-0.49 -0.72,-1.79 -0.29,-2.44 0.43,-0.64 1.56,-0.47 2.46,-0.47l9.69 0.01z"/>
    <path class="fil36" d="M88.95 89.42c0.56,0.48 3.55,5.84 3.71,6.66l-7.44 0.02c0.19,-0.84 1.29,-2.66 1.74,-3.47 0.49,-0.87 1.27,-2.8 1.98,-3.21zm-7.06 12.46c0.83,-1.12 1,-1.96 1.76,-3.15l10.62 0.05 1.73 3.16 3.62 0.02c-0.24,-1.53 -5.62,-10.42 -6.97,-13.03 -0.91,-1.75 -1.17,-2.75 -3.7,-2.77 -2.65,-0.02 -2.89,0.96 -3.86,2.83 -1.3,2.49 -6.65,11.64 -6.84,12.99l3.64 -0.1z"/>
    <path class="fil36" d="M4.39 120.99l0.14 -6.25 12.99 -0.1c0.45,-0.58 0.38,-1.87 0.12,-2.74l-13.08 -0.02c0.13,-3.97 1.59,-3.42 5.23,-3.42 1.56,-0 6.94,0.34 7.88,-0.18l0.26 -0.66c0.66,-3.46 -1.38,-2.37 -8.14,-2.37 -2.39,0 -5.28,-0.22 -6.96,1.15 -1.83,1.48 -1.72,3.67 -1.71,6.53 0,1.77 -0.21,6.67 0.14,8.14l3.14 -0.08z"/>
    <path class="fil36" d="M60.04 86.2c0.19,1.15 5.91,11.05 6.96,12.95 1.02,1.86 1.17,2.83 3.87,2.83 2.61,0 2.72,-1.08 3.77,-2.93 1.15,-2.04 6.71,-11.91 6.79,-12.86l-3.79 0.01c-1.06,2.51 -3.64,6.76 -5.05,9.48 -0.45,0.87 -1.07,2.58 -1.94,2.99 -1.23,-1.18 -5.53,-10.56 -7.06,-12.49l-3.55 0.01z"/>
    <path class="fil36" d="M35.34 120.95l0.07 -12.49 7.42 -0.08c0.37,-0.43 0.36,-1.58 0.24,-2.28l-0.1 -0.36c-0.01,-0.04 -0.06,-0.07 -0.07,-0.16 -0.08,-0.73 -17.98,-0.44 -18.32,-0.15 -0.3,0.26 -0.31,0.91 -0.29,1.54 0,0.23 0.03,0.61 0.08,0.84 0.33,1.75 4.71,0.28 7.57,0.79 0.2,3.03 -0.42,10.04 0.17,12.47l3.22 -0.13z"/>
    <path class="fil36" d="M0.53 89.26c1.65,0 6.12,-0.27 7.4,0.18 0.6,3.2 -0.53,9.49 0.25,12.45l3.16 -0 0.1 -12.45 7.56 -0.31 -0.05 -2.8c-1.13,-0.31 -17.02,-0.3 -18.6,-0.06 -0.14,0.9 -0.29,2.41 0.19,2.99z"/>
    <path class="fil36" d="M22.74 105.48c-0.42,-0.28 -1.45,-0.26 -2.17,-0.23 -1.15,0.04 -1.08,0.09 -1.1,1.26 -0.04,2.42 -0.15,13.51 0.18,14.42 0.73,0.28 2.51,0.32 3.16,-0.06 0.36,-0.93 0.28,-14.83 -0.07,-15.38z"/>
    <path class="fil36" d="M83.21 84.92c2.4,0.98 2.05,-0.5 2.5,-1.7 2.47,-0.59 2.61,1.6 5.47,1.84 2.64,0.22 4.1,-0.95 3.42,-3.78 -3.14,-0.47 -1.64,0.32 -2.56,1.86 -2.28,0.5 -2.58,-1.47 -5.28,-1.81 -2.7,-0.34 -4.1,0.83 -3.54,3.6z"/>
    <path class="fil37" d="M35.34 120.95c0.33,-0.43 0.3,-0.24 0.29,-1.41l-0.01 -10.86 6.58 -0c1.05,-0.06 0.33,0.02 0.64,-0.29l-7.42 0.08 -0.07 12.49z"/>
    <path class="fil38" d="M8.18 101.89c-0.78,-2.96 0.35,-9.25 -0.25,-12.45 -1.28,-0.45 -5.75,-0.18 -7.4,-0.18 0.47,0.39 0.96,0.26 1.76,0.25l5.48 0.03 0.02 9.5c-0,1.55 -0.28,2.49 0.39,2.86z"/>
    <path class="fil37" d="M4.39 120.99c0.38,-0.3 0.22,0.38 0.37,-0.57l0.02 -5.49c2.16,-0.06 4.38,-0.02 6.55,-0.02 0.94,0 5.75,0.26 6.19,-0.27l-12.99 0.1 -0.14 6.25z"/>
    <path class="fil39" d="M42.54 82.95l-0.12 -0.6c-0.22,0.16 -0.39,0.22 -0.53,0.52 -0.45,0.97 0.07,0.65 0.16,0.74l0.5 -0.66z"/>
    <path class="fil40" d="M42.42 82.34l0.12 0.6 0.72 -1.11c-0.56,0.22 -0.19,0.16 -0.4,-0.14 -0.44,0.27 -0.22,-0.42 -0.45,0.65z"/>
    <path class="fil31" d="M47.16 77.47c0.42,-0.24 0.35,0.29 0.44,-0.23l0.12 -0.46c-0.7,0.45 -0.26,-0.09 -0.56,0.7z"/>
    <path class="fil3" d="M49.47 74.89c0.72,-0.28 0.3,0.13 0.56,-0.59 -0.48,0.22 -0.27,-0.14 -0.56,0.59z"/>
    <path class="fil15" d="M45.99 78.97l0.84 -0.9c-0.89,0.43 -0.47,0.11 -0.84,0.9z"/>
    <path class="fil41" d="M115.32 89.77c-0.35,-0.24 0.31,-0.03 -0.47,-0.31 -0.55,-0.19 -0.4,-0.09 -0.87,-0.15l1.34 0.46z"/>
    <path class="fil3" d="M50 74.16c0.45,-0.22 0.38,0.26 0.38,-0.25 0.38,0 0.25,0.08 0.24,-0.39l-0.63 0.64z"/>
    <path class="fil38" d="M118.31 87.65c-0.28,-0.34 -0.07,-0.24 -0.66,-0.46l0.66 0.46z"/>
    <polygon class="fil38" points="104.13,98.35 103.7,97.64 "/>
   </g>
  </g>
 </g>
</svg>
